<?xml version="1.0" encoding="UTF-8" standalone="no"?>
<!-- Created with Inkscape (http://www.inkscape.org/) -->

<svg
   xmlns:dc="http://purl.org/dc/elements/1.1/"
   xmlns:cc="http://creativecommons.org/ns#"
   xmlns:rdf="http://www.w3.org/1999/02/22-rdf-syntax-ns#"
   xmlns:svg="http://www.w3.org/2000/svg"
   xmlns="http://www.w3.org/2000/svg"
   xmlns:xlink="http://www.w3.org/1999/xlink"
   xmlns:sodipodi="http://sodipodi.sourceforge.net/DTD/sodipodi-0.dtd"
   xmlns:inkscape="http://www.inkscape.org/namespaces/inkscape"
   version="1.1"
   width="560"
   height="560"
   viewBox="0 0 560 560"
   id="Layer_1"
   xml:space="preserve"
   inkscape:version="0.47 r22583"
   sodipodi:docname="YouTubeFFMPEG.svg"><metadata
   id="metadata72"><rdf:RDF><cc:Work
       rdf:about=""><dc:format>image/svg+xml</dc:format><dc:type
         rdf:resource="http://purl.org/dc/dcmitype/StillImage" /><dc:title /></cc:Work></rdf:RDF></metadata><sodipodi:namedview
   pagecolor="#ffffff"
   bordercolor="#666666"
   borderopacity="1"
   objecttolerance="10"
   gridtolerance="10"
   guidetolerance="10"
   inkscape:pageopacity="0"
   inkscape:pageshadow="2"
   inkscape:window-width="1280"
   inkscape:window-height="725"
   id="namedview70"
   showgrid="false"
   inkscape:zoom="0.83687943"
   inkscape:cx="213.10374"
   inkscape:cy="136.22034"
   inkscape:window-x="0"
   inkscape:window-y="25"
   inkscape:window-maximized="1"
   inkscape:current-layer="Layer_1" /><defs
   id="defs124"><inkscape:perspective
     sodipodi:type="inkscape:persp3d"
     inkscape:vp_x="0 : 141 : 1"
     inkscape:vp_y="0 : 1000 : 0"
     inkscape:vp_z="550 : 141 : 1"
     inkscape:persp3d-origin="275 : 94 : 1"
     id="perspective74" /><linearGradient
     x1="383.28857"
     y1="0"
     x2="383.28857"
     y2="218.48047"
     id="SVGID_1_"
     gradientUnits="userSpaceOnUse">
		<stop
   id="stop8"
   style="stop-color:#ed2828;stop-opacity:1"
   offset="0.005618" />
		<stop
   id="stop10"
   style="stop-color:#ef3b39;stop-opacity:1"
   offset="0.5" />
		<stop
   id="stop12"
   style="stop-color:#c02126;stop-opacity:1"
   offset="0.99438202" />
	</linearGradient><defs
     id="defs16">
		
			<filter
   filterUnits="userSpaceOnUse"
   x="227.15527"
   y="6.1162109"
   width="312.26807"
   height="206.24658"
   color-interpolation-filters="sRGB"
   id="Adobe_OpacityMaskFilter">
			<feColorMatrix
   type="matrix"
   values="1 0 0 0 0  0 1 0 0 0  0 0 1 0 0  0 0 0 1 0"
   id="feColorMatrix19" />
		</filter>
	</defs><mask
     id="SVGID_2_">
		<g
   id="g22"
   style="filter:url(#Adobe_OpacityMaskFilter)">
			
				<linearGradient
   x1="461.1333"
   y1="-18.515625"
   x2="352.86621"
   y2="169.00847"
   id="SVGID_3_"
   gradientUnits="userSpaceOnUse">
				<stop
   id="stop25"
   style="stop-color:#ffffff;stop-opacity:1"
   offset="0.005618" />
				<stop
   id="stop27"
   style="stop-color:#f6f6f6;stop-opacity:1"
   offset="0.0129151" />
				<stop
   id="stop29"
   style="stop-color:#c8c8c8;stop-opacity:1"
   offset="0.0527588" />
				<stop
   id="stop31"
   style="stop-color:#9d9d9d;stop-opacity:1"
   offset="0.097662" />
				<stop
   id="stop33"
   style="stop-color:#777777;stop-opacity:1"
   offset="0.1459223" />
				<stop
   id="stop35"
   style="stop-color:#575757;stop-opacity:1"
   offset="0.1984525" />
				<stop
   id="stop37"
   style="stop-color:#3b3b3b;stop-opacity:1"
   offset="0.25650609" />
				<stop
   id="stop39"
   style="stop-color:#252525;stop-opacity:1"
   offset="0.32202971" />
				<stop
   id="stop41"
   style="stop-color:#141414;stop-opacity:1"
   offset="0.39857501" />
				<stop
   id="stop43"
   style="stop-color:#090909;stop-opacity:1"
   offset="0.49318269" />
				<stop
   id="stop45"
   style="stop-color:#020202;stop-opacity:1"
   offset="0.62592632" />
				<stop
   id="stop47"
   style="stop-color:#000000;stop-opacity:1"
   offset="0.99438202" />
			</linearGradient>
			<path
   d="m 537.271,48.946777 -0.0195,-0.23291 v -0.234375 c 0,-22.16748 -18.27539,-40.2036132 -40.74023,-40.2036132 h -0.12695 l -0.12696,-0.00586 C 460.38232,6.7724608 422.37646,6.0498046 383.27686,6.1210936 344.20264,6.0498045 306.19678,6.7724608 270.3208,8.2700194 l -0.12744,0.00586 h -0.12793 c -6.18018,0 -12.03906,1.371582 -17.29248,3.8125006 l 281.46484,173.0625 c 1.9375,-4.67774 3.01367,-9.79102 3.01367,-15.15039 v -0.23438 l 0.0195,-0.23242 c 1.48632,-19.39844 2.20898,-39.67871 2.14843,-60.3125 0.0605,-20.596678 -0.66211,-40.876952 -2.14843,-60.274413 z m -41.01368,161.262693 0.12696,-0.004 h 0.12695 c 6.51367,0 12.66992,-1.52539 18.13672,-4.21875 l -87.15625,6.10742 c 23.56641,-0.33008 46.57422,-0.95703 68.76562,-1.88477 z"
   id="path49"
   style="fill:url(#SVGID_3_)" />
		</g>
	</mask><linearGradient
     x1="383.28857"
     y1="0"
     x2="383.28857"
     y2="218.48047"
     id="linearGradient2995"
     xlink:href="#SVGID_1_"
     gradientUnits="userSpaceOnUse"
     gradientTransform="translate(2.2307985,-29.737539)" /><linearGradient
     x1="37.176758"
     y1="35.600098"
     x2="37.17675"
     y2="179.14551"
     id="linearGradient2999"
     xlink:href="#SVGID_4_"
     gradientUnits="userSpaceOnUse" /><linearGradient
     x1="101.92383"
     y1="70.578125"
     x2="101.92382"
     y2="181.82129"
     id="linearGradient3001"
     xlink:href="#SVGID_5_"
     gradientUnits="userSpaceOnUse" /><linearGradient
     x1="175.30762"
     y1="73.254395"
     x2="175.30762"
     y2="180.6748"
     id="linearGradient3003"
     xlink:href="#SVGID_6_"
     gradientUnits="userSpaceOnUse" /><linearGradient
     x1="37.176758"
     y1="35.600098"
     x2="37.17675"
     y2="179.14551"
     id="SVGID_4_"
     gradientUnits="userSpaceOnUse">
			<stop
   id="stop56"
   style="stop-color:#4b4b4b;stop-opacity:1"
   offset="0" />
			<stop
   id="stop58"
   style="stop-color:#000000;stop-opacity:1"
   offset="0.99438202" />
		</linearGradient><linearGradient
     x1="101.92383"
     y1="70.578125"
     x2="101.92382"
     y2="181.82129"
     id="SVGID_5_"
     gradientUnits="userSpaceOnUse">
			<stop
   id="stop63"
   style="stop-color:#4b4b4b;stop-opacity:1"
   offset="0" />
			<stop
   id="stop65"
   style="stop-color:#000000;stop-opacity:1"
   offset="0.99438202" />
		</linearGradient><linearGradient
     x1="175.30762"
     y1="73.254395"
     x2="175.30762"
     y2="180.6748"
     id="SVGID_6_"
     gradientUnits="userSpaceOnUse">
			<stop
   id="stop70"
   style="stop-color:#4b4b4b;stop-opacity:1"
   offset="0" />
			<stop
   id="stop72"
   style="stop-color:#000000;stop-opacity:1"
   offset="0.99438202" />
		</linearGradient><linearGradient
     x1="175.30762"
     y1="73.254395"
     x2="175.30762"
     y2="180.6748"
     id="linearGradient3015"
     xlink:href="#SVGID_6_"
     gradientUnits="userSpaceOnUse"
     gradientTransform="translate(2.2307985,2.262461)" /><linearGradient
     x1="101.92383"
     y1="70.578125"
     x2="101.92382"
     y2="181.82129"
     id="linearGradient3018"
     xlink:href="#SVGID_5_"
     gradientUnits="userSpaceOnUse"
     gradientTransform="translate(2.2307985,2.262461)" /><linearGradient
     x1="37.176758"
     y1="35.600098"
     x2="37.17675"
     y2="179.14551"
     id="linearGradient3021"
     xlink:href="#SVGID_4_"
     gradientUnits="userSpaceOnUse"
     gradientTransform="translate(2.2307985,2.262461)" /><linearGradient
     inkscape:collect="always"
     xlink:href="#SVGID_1_"
     id="linearGradient2899"
     gradientUnits="userSpaceOnUse"
     gradientTransform="translate(2.2307985,-29.737539)"
     x1="383.28857"
     y1="0"
     x2="383.28857"
     y2="218.48047" /><linearGradient
     inkscape:collect="always"
     xlink:href="#SVGID_4_"
     id="linearGradient2901"
     gradientUnits="userSpaceOnUse"
     gradientTransform="translate(2.2307985,-29.737539)"
     x1="37.176758"
     y1="35.600098"
     x2="37.17675"
     y2="179.14551" /><linearGradient
     inkscape:collect="always"
     xlink:href="#SVGID_5_"
     id="linearGradient2903"
     gradientUnits="userSpaceOnUse"
     gradientTransform="translate(2.2307985,-29.737539)"
     x1="101.92383"
     y1="70.578125"
     x2="101.92382"
     y2="181.82129" /><linearGradient
     inkscape:collect="always"
     xlink:href="#SVGID_6_"
     id="linearGradient2905"
     gradientUnits="userSpaceOnUse"
     gradientTransform="translate(2.2307985,-29.737539)"
     x1="175.30762"
     y1="73.254395"
     x2="175.30762"
     y2="180.6748" /></defs>

<path
   style="fill:#ffffff;fill-opacity:1;fill-rule:evenodd;stroke:#000000;stroke-opacity:1;stroke-width:5;stroke-miterlimit:4;stroke-dasharray:none"
   d="M 0,0 560,0 560,560 0,560 0,0 z"
   id="rect2907" /><g
   id="g2891"
   transform="translate(4.9999992,200.49741)"><path
     style="fill:url(#linearGradient2899)"
     id="path14"
     d="m 545.59945,18.743418 c 0,-25.572266 -20.99023,-46.321289 -46.85742,-46.321289 -36.91797,-1.541016 -74.69336,-2.225098 -113.22266,-2.154785 -38.52929,-0.07031 -76.30273,0.613769 -113.22314,2.154785 -25.86475,0 -46.85693,20.749023 -46.85693,46.321289 -1.55274,20.25293 -2.22657,40.506348 -2.16602,60.759762 -0.0601,20.25293 0.61328,40.50586 2.1665,60.75977 0,25.57226 20.9917,46.32226 46.85743,46.32226 36.91943,1.54102 74.69287,2.22461 113.22216,2.15235 38.5293,0.0723 76.30469,-0.61133 113.22266,-2.15235 25.86719,0 46.85742,-20.75 46.85742,-46.32226 1.55274,-20.25391 2.22656,-40.50684 2.16602,-60.75977 0.0605,-20.253414 -0.61328,-40.506832 -2.16602,-60.759762 z" /><path
     d="M 2.2307985,5.862559 H 24.561364 l 14.385744,57.376953 h 1.392088 L 54.055993,5.862559 H 76.583826 L 50.780114,89.844 v 59.56348 H 28.607751 V 92.52564 L 2.2307985,5.862559 z"
     id="path60"
     style="fill:url(#linearGradient2901)" /><path
     d="m 75.579432,67.725352 c 0,-8.200684 2.648926,-14.729493 7.950195,-19.591309 5.30127,-4.862305 12.423828,-7.293457 21.371583,-7.293457 8.14746,0 14.82227,2.56543 20.0249,7.69043 5.20264,5.125 7.80371,11.722168 7.80371,19.791994 v 54.69189 c 0,9.0625 -2.55371,16.17188 -7.65429,21.33008 -5.10108,5.1582 -12.12549,7.73828 -21.07032,7.73828 -8.613278,0 -15.505857,-2.66406 -20.672849,-7.98633 -5.169433,-5.32226 -7.752929,-12.48242 -7.752929,-21.47851 V 67.725352 z m 20.260742,56.875488 c 0,2.91601 0.69873,5.16406 2.102539,6.75391 1.400391,1.58789 3.401367,2.3789 6.005857,2.3789 2.66993,0 4.7876,-0.80859 6.3584,-2.42969 1.56787,-1.62304 2.35352,-3.85547 2.35352,-6.70312 V 66.930918 c 0,-2.314453 -0.80371,-4.184082 -2.4043,-5.605469 -1.60059,-1.421875 -3.70312,-2.135254 -6.30762,-2.135254 -2.40137,0 -4.35449,0.713379 -5.856443,2.135254 -1.502441,1.421387 -2.251953,3.291016 -2.251953,5.605469 v 57.669922 z"
     id="path67"
     style="fill:url(#linearGradient2903)" /><path
     d="M 205.63607,43.516856 V 149.40748 h -19.68701 v -11.68945 c -3.6289,4.30664 -7.40381,7.58984 -11.32812,9.84179 -3.92432,2.24805 -7.73535,3.37696 -11.42676,3.37696 -4.55127,0 -7.98291,-1.57422 -10.29151,-4.72852 -2.30859,-3.15234 -3.46142,-7.88086 -3.46142,-14.18555 V 43.516856 h 19.6875 v 81.171874 c 0,2.51172 0.41211,4.32617 1.23633,5.44922 0.82422,1.12305 2.15918,1.68555 4.00781,1.68555 1.45166,0 3.2793,-0.74219 5.48926,-2.22852 2.20996,-1.48828 4.23779,-3.38672 6.08691,-5.70117 V 43.516856 h 19.68701 z"
     id="path74"
     style="fill:url(#linearGradient2905)" /><path
     d="m 316.46273,4.141855 h -68.04541 v 20.834473 h 22.93653 V 147.68678 h 22.17138 V 24.976328 h 22.9375 V 4.141855 z M 352.70101,122.1731 c -1.84765,2.31446 -3.87695,4.21485 -6.08593,5.70118 -2.21094,1.48828 -4.03907,2.22851 -5.49024,2.22851 -1.84765,0 -3.18359,-0.5625 -4.00781,-1.68554 -0.82422,-1.1211 -1.23633,-2.9375 -1.23633,-5.44922 V 41.796152 h -19.6875 v 88.505858 c 0,6.30469 1.1543,11.0332 3.46289,14.1875 2.3086,3.15234 5.74024,4.72656 10.29102,4.72656 3.6914,0 7.50195,-1.1289 11.42578,-3.37695 3.92578,-2.25195 7.69922,-5.53516 11.32812,-9.8418 v 11.68946 h 19.6875 V 41.796152 h -19.6875 V 122.1731 z m 76.27735,-81.714838 c -3.05274,0 -6.06836,0.842285 -9.05274,2.523926 -2.98242,1.684082 -5.79882,4.13916 -8.45117,7.370605 V 4.141855 h -19.8789 V 147.68678 h 19.8789 v -8.14063 c 2.58594,3.22461 5.38867,5.61133 8.4043,7.1582 3.01562,1.54688 6.44726,2.32032 10.29492,2.32032 5.83203,0 10.29102,-1.99414 13.37305,-5.99024 3.08203,-3.99609 4.62695,-9.75781 4.62695,-17.28711 V 67.002695 c 0,-8.648925 -1.64258,-15.237304 -4.92578,-19.758789 -3.28125,-4.521484 -8.03906,-6.785644 -14.26953,-6.785644 z m -1.06641,82.410158 c 0,3.375 -0.57031,5.81054 -1.70508,7.29687 -1.13476,1.48828 -2.90625,2.23047 -5.31054,2.23047 -1.67188,0 -3.25782,-0.37891 -4.76172,-1.14062 -1.50586,-0.75782 -3.0586,-2 -4.66016,-3.72071 V 61.546152 c 1.33594,-1.454101 2.6875,-2.529297 4.0586,-3.225097 1.36914,-0.692871 2.75781,-1.042481 4.16015,-1.042481 2.66992,0 4.71094,0.928711 6.11328,2.780274 1.4043,1.85205 2.10547,4.563476 2.10547,8.135742 v 54.67383 z M 520.9393,97.22584 V 70.26685 c 0,-10.049311 -2.41993,-17.751948 -7.25196,-23.10937 -4.83593,-5.35791 -11.75586,-8.037109 -20.76172,-8.037109 -8.81054,0 -15.99609,2.894043 -21.55664,8.678711 -5.56445,5.788086 -8.3457,13.275391 -8.3457,22.467768 v 47.52735 c 0,10.19336 2.5332,18.20117 7.59766,24.02539 5.0664,5.82226 12.0039,8.73437 20.81445,8.73437 9.80078,0 17.16992,-2.74804 22.10352,-8.24023 4.93359,-5.49219 7.40039,-13.66602 7.40039,-24.51953 v -7.95313 h -20.26172 v 7.35938 c 0,6.23047 -0.65039,10.25976 -1.94922,12.08008 -1.29883,1.82226 -3.58203,2.73437 -6.8457,2.73437 -3.13672,0 -5.35157,-1.07617 -6.6504,-3.23242 -1.29882,-2.15234 -1.94726,-6.01563 -1.94726,-11.58203 V 97.22584 h 37.6543 z M 483.285,70.07008 c 0,-4.432131 0.67969,-7.609865 2.04883,-9.530275 1.36523,-1.917481 3.61328,-2.878906 6.74609,-2.878906 2.99805,0 5.18164,0.961425 6.54883,2.878906 1.36523,1.92041 2.04883,5.098144 2.04883,9.530275 V 80.78834 H 483.285 V 70.07008 z"
     id="path78" /><path
     d="m 316.46273,5.671152 h -68.04541 v 20.833985 h 22.93653 V 149.21607 h 22.17138 V 26.505137 h 22.9375 V 5.671152 z M 352.70101,123.7024 c -1.84765,2.31445 -3.87695,4.21485 -6.08593,5.70117 -2.21094,1.48828 -4.03907,2.22852 -5.49024,2.22852 -1.84765,0 -3.18359,-0.5625 -4.00781,-1.68555 -0.82422,-1.12304 -1.23633,-2.9375 -1.23633,-5.44922 V 43.325449 h -19.6875 v 88.505861 c 0,6.30469 1.1543,11.0332 3.46289,14.1875 2.3086,3.15234 5.74024,4.72656 10.29102,4.72656 3.6914,0 7.50195,-1.12891 11.42578,-3.37695 3.92578,-2.25196 7.69922,-5.53516 11.32812,-9.8418 v 11.68945 h 19.6875 V 43.325449 h -19.6875 V 123.7024 z m 76.27735,-81.714841 c -3.05274,0 -6.06836,0.842285 -9.05274,2.523437 -2.98242,1.684571 -5.79882,4.139649 -8.45117,7.371094 V 5.671152 h -19.8789 V 149.21607 h 19.8789 v -8.14062 c 2.58594,3.22461 5.38867,5.61133 8.4043,7.1582 3.01562,1.54688 6.44726,2.32031 10.29492,2.32031 5.83203,0 10.29102,-1.99414 13.37305,-5.99023 3.08203,-3.99609 4.62695,-9.75781 4.62695,-17.28711 V 68.53199 c 0,-8.648924 -1.64258,-15.237302 -4.92578,-19.759275 -3.28125,-4.521484 -8.03906,-6.785156 -14.26953,-6.785156 z m -1.06641,82.410151 c 0,3.375 -0.57031,5.8086 -1.70508,7.29688 -1.13476,1.48633 -2.90625,2.23047 -5.31054,2.23047 -1.67188,0 -3.25782,-0.37891 -4.76172,-1.14063 -1.50586,-0.75781 -3.0586,-2 -4.66016,-3.7207 V 63.075449 c 1.33594,-1.454589 2.6875,-2.529785 4.0586,-3.225586 1.36914,-0.692871 2.75781,-1.041992 4.16015,-1.041992 2.66992,0 4.71094,0.928711 6.11328,2.780274 1.4043,1.851562 2.10547,4.563476 2.10547,8.135255 v 54.67431 z M 520.9393,98.75514 V 71.79615 c 0,-10.049802 -2.41993,-17.751951 -7.25196,-23.109861 -4.83593,-5.35791 -11.75586,-8.036621 -20.76172,-8.036621 -8.81054,0 -15.99609,2.894043 -21.55664,8.678711 -5.56445,5.788086 -8.3457,13.27539 -8.3457,22.467771 v 47.52735 c 0,10.19335 2.5332,18.20117 7.59766,24.02539 5.0664,5.82226 12.0039,8.73437 20.81445,8.73437 9.80078,0 17.16992,-2.74805 22.10352,-8.24023 4.93359,-5.49219 7.40039,-13.66602 7.40039,-24.51953 v -7.95313 h -20.26172 v 7.35938 c 0,6.23046 -0.65039,10.25976 -1.94922,12.08007 -1.29883,1.82227 -3.58203,2.73243 -6.8457,2.73243 -3.13672,0 -5.35157,-1.07422 -6.6504,-3.23047 -1.29882,-2.1543 -1.94726,-6.01563 -1.94726,-11.58203 V 98.75514 h 37.6543 z M 483.285,71.59889 c 0,-4.431644 0.67969,-7.609378 2.04883,-9.529788 1.36523,-1.917481 3.61328,-2.878907 6.74609,-2.878907 2.99805,0 5.18164,0.961426 6.54883,2.878907 1.36523,1.92041 2.04883,5.098144 2.04883,9.529788 V 82.31764 H 483.285 V 71.59889 z"
     id="path80"
     style="fill:#ffffff" /></g>
</svg>